<?xml version="1.0" encoding="UTF-8" standalone="no"?>
<!DOCTYPE svg PUBLIC "-//W3C//DTD SVG 1.1//EN"
 "http://www.w3.org/Graphics/SVG/1.1/DTD/svg11.dtd">
<!-- Generated by graphviz version 2.43.0 (0)
 -->
<!-- Title: Test Pages: 1 -->
<svg width="1475pt" height="190pt"
 viewBox="0.00 0.00 1475.00 190.00" xmlns="http://www.w3.org/2000/svg" xmlns:xlink="http://www.w3.org/1999/xlink">
<g id="graph0" class="graph" transform="scale(1 1) rotate(0) translate(4 186)">
<title>Test</title>
<polygon fill="white" stroke="transparent" points="-4,4 -4,-186 1471,-186 1471,4 -4,4"/>
<!-- QLearner -->
<g id="node1" class="node">
<title>QLearner</title>
<polygon fill="#e5e5e5" stroke="black" points="0,-0.5 0,-120.5 243,-120.5 243,-0.5 0,-0.5"/>
<text text-anchor="start" x="8" y="-57.8" font-family="Helvetica,Arial,sans-serif" font-weight="bold" font-size="14.00">QLearner</text>
<polyline fill="none" stroke="black" points="77,-0.5 77,-120.5 "/>
<text text-anchor="start" x="128" y="-106.3" font-family="Helvetica,Arial,sans-serif" font-weight="bold" font-size="14.00">pub &#160;</text>
<text text-anchor="start" x="161" y="-106.3" font-family="Helvetica,Arial,sans-serif" font-size="14.00"> q: Q</text>
<text text-anchor="start" x="108.5" y="-92.3" font-family="Helvetica,Arial,sans-serif" font-size="14.00"> &#160;&#160;&#160;</text>
<text text-anchor="start" x="124.5" y="-92.3" font-family="Helvetica,Arial,sans-serif" font-weight="bold" font-size="14.00">pub &#160;</text>
<text text-anchor="start" x="157.5" y="-92.3" font-family="Helvetica,Arial,sans-serif" font-size="14.00"> rate: f64</text>
<text text-anchor="start" x="95" y="-78.3" font-family="Helvetica,Arial,sans-serif" font-size="14.00"> &#160;&#160;&#160;</text>
<text text-anchor="start" x="111" y="-78.3" font-family="Helvetica,Arial,sans-serif" font-weight="bold" font-size="14.00">pub &#160;</text>
<text text-anchor="start" x="144" y="-78.3" font-family="Helvetica,Arial,sans-serif" font-size="14.00"> discount: f64</text>
<text text-anchor="start" x="85" y="-64.3" font-family="Helvetica,Arial,sans-serif" font-size="14.00"> &#160;&#160;&#160;</text>
<text text-anchor="start" x="101" y="-64.3" font-family="Helvetica,Arial,sans-serif" font-weight="bold" font-size="14.00">pub &#160;</text>
<text text-anchor="start" x="134" y="-64.3" font-family="Helvetica,Arial,sans-serif" font-size="14.00"> initial_value: f64</text>
<text text-anchor="start" x="91" y="-50.3" font-family="Helvetica,Arial,sans-serif" font-size="14.00"> &#160;&#160;&#160;</text>
<text text-anchor="start" x="107" y="-50.3" font-family="Helvetica,Arial,sans-serif" font-weight="bold" font-size="14.00">pub &#160;</text>
<text text-anchor="start" x="140" y="-50.3" font-family="Helvetica,Arial,sans-serif" font-size="14.00"> iterations: u64</text>
<text text-anchor="start" x="93.5" y="-36.3" font-family="Helvetica,Arial,sans-serif" font-size="14.00"> &#160;&#160;&#160;</text>
<text text-anchor="start" x="109.5" y="-36.3" font-family="Helvetica,Arial,sans-serif" font-weight="bold" font-size="14.00">pub &#160;</text>
<text text-anchor="start" x="142.5" y="-36.3" font-family="Helvetica,Arial,sans-serif" font-size="14.00"> game: Game</text>
<text text-anchor="start" x="103" y="-22.3" font-family="Helvetica,Arial,sans-serif" font-size="14.00"> &#160;&#160;&#160;current_iter: u64</text>
<text text-anchor="start" x="102.5" y="-8.3" font-family="Helvetica,Arial,sans-serif" font-size="14.00"> &#160;&#160;&#160;opponent: String</text>
</g>
<!-- Game -->
<g id="node2" class="node">
<title>Game</title>
<polygon fill="#e5e5e5" stroke="black" points="369,-33.5 369,-181.5 613,-181.5 613,-33.5 369,-33.5"/>
<text text-anchor="start" x="377" y="-104.8" font-family="Helvetica,Arial,sans-serif" font-weight="bold" font-size="14.00">Game</text>
<polyline fill="none" stroke="black" points="425,-33.5 425,-181.5 "/>
<text text-anchor="start" x="469" y="-167.3" font-family="Helvetica,Arial,sans-serif" font-size="14.00">tricks: Vec[Deck]</text>
<text text-anchor="start" x="477.5" y="-153.3" font-family="Helvetica,Arial,sans-serif" font-size="14.00"> &#160;&#160;&#160;table: Deck</text>
<text text-anchor="start" x="436.5" y="-139.3" font-family="Helvetica,Arial,sans-serif" font-size="14.00"> &#160;&#160;&#160;</text>
<text text-anchor="start" x="452.5" y="-139.3" font-family="Helvetica,Arial,sans-serif" font-weight="bold" font-size="14.00">pub &#160;</text>
<text text-anchor="start" x="485.5" y="-139.3" font-family="Helvetica,Arial,sans-serif" font-size="14.00"> players: [Player; 4]</text>
<text text-anchor="start" x="480" y="-125.3" font-family="Helvetica,Arial,sans-serif" font-size="14.00"> &#160;&#160;&#160;turn: usize</text>
<text text-anchor="start" x="478" y="-111.3" font-family="Helvetica,Arial,sans-serif" font-size="14.00"> &#160;&#160;&#160;trump: Suit</text>
<text text-anchor="start" x="465" y="-97.3" font-family="Helvetica,Arial,sans-serif" font-size="14.00"> &#160;&#160;&#160;scores: [u32; 4]</text>
<text text-anchor="start" x="445" y="-83.3" font-family="Helvetica,Arial,sans-serif" font-size="14.00"> &#160;&#160;&#160;human_players: usize</text>
<text text-anchor="start" x="482.5" y="-69.3" font-family="Helvetica,Arial,sans-serif" font-size="14.00"> &#160;&#160;&#160;wait: bool</text>
<text text-anchor="start" x="444" y="-55.3" font-family="Helvetica,Arial,sans-serif" font-size="14.00"> &#160;&#160;&#160;round_scores: [u32; 4]</text>
<text text-anchor="start" x="433" y="-41.3" font-family="Helvetica,Arial,sans-serif" font-size="14.00"> &#160;&#160;&#160;gone_cards: [[bool; 13]; 4]</text>
</g>
<!-- QLearner&#45;&gt;Game -->
<g id="edge1" class="edge">
<title>QLearner&#45;&gt;Game</title>
<path fill="none" stroke="black" d="M243.23,-83.18C255.29,-85.13 267.37,-86.94 279,-88.5 304.7,-91.95 332.24,-94.94 358.67,-97.46"/>
<polygon fill="black" stroke="black" points="358.45,-100.96 368.73,-98.41 359.11,-93.99 358.45,-100.96"/>
</g>
<!-- Action -->
<g id="node8" class="node">
<title>Action</title>
<polygon fill="#e5e5e5" stroke="black" points="279,-42.5 279,-78.5 333,-78.5 333,-42.5 279,-42.5"/>
<text text-anchor="middle" x="306" y="-56.8" font-family="Helvetica,Arial,sans-serif" font-size="14.00">Action</text>
</g>
<!-- QLearner&#45;&gt;Action -->
<g id="edge9" class="edge">
<title>QLearner&#45;&gt;Action</title>
<path fill="none" stroke="black" d="M243.21,-60.5C252.33,-60.5 261,-60.5 268.82,-60.5"/>
<polygon fill="black" stroke="black" points="268.9,-64 278.9,-60.5 268.9,-57 268.9,-64"/>
</g>
<!-- Player -->
<g id="node3" class="node">
<title>Player</title>
<polygon fill="#e5e5e5" stroke="black" points="649,-112.5 649,-148.5 831,-148.5 831,-112.5 649,-112.5"/>
<text text-anchor="start" x="657" y="-127.8" font-family="Helvetica,Arial,sans-serif" font-weight="bold" font-size="14.00">Player</text>
<polyline fill="none" stroke="black" points="706,-112.5 706,-148.5 "/>
<text text-anchor="start" x="714" y="-127.8" font-family="Helvetica,Arial,sans-serif" font-weight="bold" font-size="14.00">pub &#160;</text>
<text text-anchor="start" x="747" y="-127.8" font-family="Helvetica,Arial,sans-serif" font-size="14.00"> cards: Deck</text>
</g>
<!-- Game&#45;&gt;Player -->
<g id="edge2" class="edge">
<title>Game&#45;&gt;Player</title>
<path fill="none" stroke="black" d="M613.33,-118.8C621.83,-119.59 630.34,-120.38 638.71,-121.16"/>
<polygon fill="black" stroke="black" points="638.55,-124.66 648.83,-122.1 639.2,-117.69 638.55,-124.66"/>
</g>
<!-- Deck -->
<g id="node4" class="node">
<title>Deck</title>
<polygon fill="#e5e5e5" stroke="black" points="867,-74.5 867,-138.5 1091,-138.5 1091,-74.5 867,-74.5"/>
<text text-anchor="start" x="875" y="-103.8" font-family="Helvetica,Arial,sans-serif" font-weight="bold" font-size="14.00">Deck</text>
<polyline fill="none" stroke="black" points="917,-74.5 917,-138.5 "/>
<text text-anchor="start" x="933" y="-124.3" font-family="Helvetica,Arial,sans-serif" font-weight="bold" font-size="14.00">pub &#160;</text>
<text text-anchor="start" x="966" y="-124.3" font-family="Helvetica,Arial,sans-serif" font-size="14.00"> cards: Vec[Card] </text>
<text text-anchor="start" x="951.5" y="-110.3" font-family="Helvetica,Arial,sans-serif" font-size="14.00"> &#160;&#160;&#160;selected: usize</text>
<text text-anchor="start" x="925" y="-96.3" font-family="Helvetica,Arial,sans-serif" font-size="14.00"> &#160;&#160;&#160;suit_amounts: [usize; 4]</text>
<text text-anchor="start" x="965" y="-82.3" font-family="Helvetica,Arial,sans-serif" font-size="14.00"> &#160;&#160;&#160;curr: usize</text>
</g>
<!-- Game&#45;&gt;Deck -->
<g id="edge3" class="edge">
<title>Game&#45;&gt;Deck</title>
<path fill="none" stroke="black" d="M613.28,-104.1C625.35,-103.86 637.41,-103.65 649,-103.5 729.88,-102.47 750.12,-102.67 831,-103.5 839.35,-103.59 847.96,-103.7 856.64,-103.83"/>
<polygon fill="black" stroke="black" points="856.78,-107.33 866.84,-103.99 856.89,-100.33 856.78,-107.33"/>
</g>
<!-- GameState -->
<g id="node7" class="node">
<title>GameState</title>
<polygon fill="#e5e5e5" stroke="black" points="666,-14.5 666,-50.5 814,-50.5 814,-14.5 666,-14.5"/>
<text text-anchor="start" x="674" y="-29.8" font-family="Helvetica,Arial,sans-serif" font-weight="bold" font-size="14.00">GameState</text>
<polyline fill="none" stroke="black" points="755,-14.5 755,-50.5 "/>
<text text-anchor="start" x="763" y="-28.8" font-family="Helvetica,Arial,sans-serif" font-size="14.00">fields...</text>
</g>
<!-- Game&#45;&gt;GameState -->
<g id="edge8" class="edge">
<title>Game&#45;&gt;GameState</title>
<path fill="none" stroke="black" d="M613.33,-70.66C632.78,-64.75 652.31,-58.82 669.98,-53.46"/>
<polygon fill="black" stroke="black" points="671.04,-56.79 679.59,-50.54 669.01,-50.1 671.04,-56.79"/>
</g>
<!-- Player&#45;&gt;Deck -->
<g id="edge4" class="edge">
<title>Player&#45;&gt;Deck</title>
<path fill="none" stroke="black" d="M831.28,-121.36C839.64,-120.51 848.21,-119.64 856.8,-118.77"/>
<polygon fill="black" stroke="black" points="857.28,-122.24 866.87,-117.75 856.57,-115.28 857.28,-122.24"/>
</g>
<!-- Card -->
<g id="node5" class="node">
<title>Card</title>
<polygon fill="#e5e5e5" stroke="black" points="1127,-88.5 1127,-124.5 1300,-124.5 1300,-88.5 1127,-88.5"/>
<text text-anchor="start" x="1135" y="-103.8" font-family="Helvetica,Arial,sans-serif" font-weight="bold" font-size="14.00">Card</text>
<polyline fill="none" stroke="black" points="1174,-88.5 1174,-124.5 "/>
<text text-anchor="start" x="1190.5" y="-110.3" font-family="Helvetica,Arial,sans-serif" font-weight="bold" font-size="14.00">pub &#160;</text>
<text text-anchor="start" x="1223.5" y="-110.3" font-family="Helvetica,Arial,sans-serif" font-size="14.00"> suit: Suit </text>
<text text-anchor="start" x="1182" y="-96.3" font-family="Helvetica,Arial,sans-serif" font-size="14.00"> </text>
<text text-anchor="start" x="1186" y="-96.3" font-family="Helvetica,Arial,sans-serif" font-weight="bold" font-size="14.00">pub &#160;</text>
<text text-anchor="start" x="1219" y="-96.3" font-family="Helvetica,Arial,sans-serif" font-size="14.00"> number: u8</text>
</g>
<!-- Deck&#45;&gt;Card -->
<g id="edge5" class="edge">
<title>Deck&#45;&gt;Card</title>
<path fill="none" stroke="black" d="M1091.14,-106.5C1099.69,-106.5 1108.28,-106.5 1116.72,-106.5"/>
<polygon fill="black" stroke="black" points="1116.92,-110 1126.92,-106.5 1116.92,-103 1116.92,-110"/>
</g>
<!-- Suit -->
<g id="node6" class="node">
<title>Suit</title>
<polygon fill="#e5e5e5" stroke="black" points="1336,-72.5 1336,-140.5 1467,-140.5 1467,-72.5 1336,-72.5"/>
<text text-anchor="start" x="1344" y="-103.8" font-family="Helvetica,Arial,sans-serif" font-weight="bold" font-size="14.00">Suit</text>
<polyline fill="none" stroke="black" points="1378,-72.5 1378,-140.5 "/>
<text text-anchor="start" x="1393.5" y="-125.3" font-family="Helvetica,Arial,sans-serif" font-size="14.00">{Spades, </text>
<text text-anchor="start" x="1399.5" y="-110.3" font-family="Helvetica,Arial,sans-serif" font-size="14.00"> Clubs, </text>
<text text-anchor="start" x="1386" y="-95.3" font-family="Helvetica,Arial,sans-serif" font-size="14.00"> Diamonds, </text>
<text text-anchor="start" x="1396" y="-80.3" font-family="Helvetica,Arial,sans-serif" font-size="14.00"> Hearts }</text>
</g>
<!-- Card&#45;&gt;Suit -->
<g id="edge6" class="edge">
<title>Card&#45;&gt;Suit</title>
<path fill="none" stroke="black" d="M1300.15,-106.5C1308.69,-106.5 1317.31,-106.5 1325.73,-106.5"/>
<polygon fill="black" stroke="black" points="1325.88,-110 1335.88,-106.5 1325.88,-103 1325.88,-110"/>
</g>
<!-- GameState&#45;&gt;QLearner -->
<g id="edge7" class="edge">
<title>GameState&#45;&gt;QLearner</title>
<path fill="none" stroke="black" d="M665.75,-27.06C648.46,-26 630.09,-25.04 613,-24.5 464.58,-19.79 426.14,-13.48 279,-33.5 270.56,-34.65 261.89,-35.91 253.15,-37.25"/>
<polygon fill="black" stroke="black" points="252.61,-33.79 243.27,-38.78 253.68,-40.71 252.61,-33.79"/>
</g>
<!-- Action&#45;&gt;Game -->
<g id="edge10" class="edge">
<title>Action&#45;&gt;Game</title>
<path fill="none" stroke="black" d="M343.01,-69.75C348.05,-71.04 353.44,-72.43 359.09,-73.88"/>
<polygon fill="black" stroke="black" points="343.78,-66.33 333.22,-67.23 342.03,-73.11 343.78,-66.33"/>
<polygon fill="black" stroke="black" points="358.24,-77.27 368.8,-76.37 359.98,-70.49 358.24,-77.27"/>
</g>
</g>
</svg>
